<svg xmlns="http://www.w3.org/2000/svg" xml:space="preserve" width="800" height="800" viewBox="0 0 297 297"><circle cx="148.5" cy="148.5" r="148.5" style="fill:#345065"/><path d="M226.9 121.35 68.119 173.689l118.393 118.393c51.458-13.587 91.973-54.098 105.566-105.554L226.9 121.35z" style="fill:#213947"/><path d="M148.5 90.189c-43.836 0-81.503 23.989-98 58.311 16.497 34.322 54.164 58.311 98 58.311s81.503-23.989 98-58.311c-16.497-34.322-54.164-58.311-98-58.311z" style="fill:#fff"/><path d="M148.5 90.189c-.335 0-.666.014-1 .017v116.588c.334.003.665.017 1 .017 43.836 0 81.503-23.989 98-58.311-16.497-34.322-54.164-58.311-98-58.311z" style="fill:#edeceb"/><circle cx="148.5" cy="148.5" r="49.5" style="fill:#9adad9"/><path d="M148.5 99c-.335 0-.666.019-1 .025v98.949c.334.007.665.025 1 .025 27.338 0 49.5-22.162 49.5-49.5C198 121.162 175.838 99 148.5 99z" style="fill:#80b7b4"/><circle cx="148.5" cy="148.5" r="23" style="fill:#5d7486"/><path d="M148.5 125.5c-.335 0-.668.011-1 .025v45.949c.332.014.665.025 1 .025 12.703 0 23-10.297 23-23 0-12.702-10.297-22.999-23-22.999z" style="fill:#345065"/><circle cx="140.25" cy="140.25" r="8.25" style="fill:#fff"/></svg>