<?xml version="1.0" standalone="no"?>
<!DOCTYPE svg PUBLIC "-//W3C//DTD SVG 20010904//EN"
 "http://www.w3.org/TR/2001/REC-SVG-20010904/DTD/svg10.dtd">
<svg version="1.0" xmlns="http://www.w3.org/2000/svg"
 width="700.000000pt" height="700.000000pt" viewBox="0 0 700.000000 700.000000"
 preserveAspectRatio="xMidYMid meet">
<metadata>
Created by potrace 1.14, written by Peter Selinger 2001-2017
</metadata>
<g transform="translate(0.000000,700.000000) scale(0.100000,-0.100000)"
fill="#000000" stroke="none">
<path d="M3278 6995 c-1 -1 -42 -5 -89 -9 -47 -4 -95 -8 -106 -10 -11 -3 -44
-7 -74 -11 -312 -37 -711 -158 -1024 -311 -180 -87 -448 -247 -555 -331 -8 -6
-51 -40 -95 -74 -342 -266 -650 -623 -875 -1014 -47 -83 -170 -327 -170 -340
0 -3 -9 -24 -20 -48 -57 -123 -157 -435 -186 -582 -2 -11 -10 -54 -19 -95 -29
-147 -36 -200 -52 -370 -15 -165 -8 -592 12 -711 2 -13 6 -46 9 -74 9 -78 22
-152 51 -285 21 -96 91 -339 114 -395 5 -11 25 -65 46 -120 64 -170 213 -461
314 -615 213 -323 469 -603 771 -845 92 -74 370 -265 386 -265 4 0 15 -6 23
-14 47 -41 413 -212 576 -270 79 -27 261 -84 291 -90 10 -2 57 -13 104 -25
109 -26 200 -43 299 -57 25 -3 57 -8 71 -10 162 -25 683 -25 841 1 13 2 47 7
74 10 86 12 91 13 200 34 519 101 1040 342 1470 679 603 474 1054 1169 1230
1897 28 117 70 346 80 440 4 33 9 71 11 85 9 47 11 525 4 605 -15 157 -21 210
-25 225 -2 8 -7 35 -10 60 -17 129 -80 384 -136 552 -348 1036 -1168 1857
-2204 2206 -168 57 -420 119 -555 137 -19 3 -46 7 -60 10 -13 2 -52 7 -86 11
-33 3 -74 8 -90 10 -33 5 -540 14 -546 9z"/>
</g>
</svg>
